/* XPM */
static char *e2ff24a06f1344f8dc8e4272219702c5nip6tSmKacijPcGk[] = {
/* columns rows colors chars-per-pixel */
"100 100 12 1 ",
"  c None",
". c black",
"X c #8A878A",
"o c #C0C0C0",
"O c gray78",
"+ c #CDCDCD",
"@ c gray85",
"# c #DDDDDD",
"$ c #E1E1E1",
"% c gray91",
"& c gray92",
"* c gray93",
/* pixels */
"                                                                                                    ",
"                                                                                                    ",
"                                                                                                    ",
"                                                                                                    ",
"                                                                                                    ",
"                                                                                                    ",
"                                                                                                    ",
"                                                                                                    ",
"                                                                                                    ",
"                                                                                                    ",
"                                                                                                    ",
"                                                                                                    ",
"                                                                                                    ",
"                                                                                                    ",
"                                                                                                    ",
"                                                                                                    ",
"                                                                                                    ",
"                                                                                                    ",
"                                                                                                    ",
"                                                                                                    ",
"                                                                                                    ",
"                                                                                                    ",
"                                                                                                    ",
"                                                                                                    ",
"                                                                                                    ",
"                                                                                                    ",
"                                                                                                    ",
"                                                                                                    ",
"                                                                                                    ",
"                                                                                                    ",
"                                                                                                    ",
"                                                                                                    ",
"                                                                                                    ",
"                                                                                                    ",
"                                                                                                    ",
"                                                                                                    ",
"                                                                                                    ",
"                                                                                                    ",
"                                                         oo                                         ",
"                                                         oooo+o                                     ",
"                                                          ooo*Ooo                                   ",
"                                                          ooo%@Oo                                   ",
"                                                          ooooo@Oo                                  ",
"                                                          XXXooo@o                                  ",
"                                                           oXXoooo                                  ",
"                                                           ooXXXoo                                  ",
"                                                           ooooXXXX                                 ",
"                                                            ooooooo                                 ",
"                                                            ooooOoo                                 ",
"                                                            oooo@Ooo                                ",
"                                                            ooooo@oo                                ",
"                                                             ooooooo                                ",
"                                                             Xooooooo                               ",
"                                                             XXXXoooo                               ",
"                                                              ooXXXXo                               ",
"                                                              oooooXX                               ",
"                                                              oooo++oo                              ",
"                                                               ooo%%oo                              ",
"                                                               oooo#oo                              ",
"                                  o                            oooo@ooo                             ",
"                                ooo                            XXoooooo                             ",
"                              oooo                              XXXXooo                             ",
"                           oOooooo                              oooXXXXo                            ",
"                           o#oooo                               ooooooXX                            ",
"                          oo@oooo                                ooooooo                            ",
"                          oooooo                                 ooooooo                            ",
"                         ooooXXX                                 oooooooo                           ",
"                         ooXXXoo                                 oooooooo                           ",
"                        oXXXooo                                   ooooooo                           ",
"                        XXooooo                                   oooooooo                          ",
"                       ooooooo                                    XXXooooo                          ",
"                       o+ooooo                                     oXXXXoo                          ",
"                       o*oooo                                      ooooXXXo                         ",
"                      o+%oooo                                      oooooooo                         ",
"                      o%oooo                                       oooooooo                         ",
"                     oooooXX                                        ooooooo                         ",
"                     oooXXXo                                        oooooooo                        ",
"                    ooXXXoo                                         oooooooo                        ",
"                    XXooooo                                          ooooooo                        ",
"                    oooooo                                           XXoooooo                       ",
"                   oOooooo                                           oXXooooo                       ",
"                   o$oooo                                            oooXXXoo                       ",
"                  oO*oooo                                             ooooXXXX                      ",
"                  O@%oooo                                             oooooooo                      ",
"                 o@ooooo                                              oooooooo                      ",
"                 ooooXXX                                               ooooooo                      ",
"                oooXXXo                                                oooooooo                     ",
"                oXXXooo                                                oooooooo                     ",
"                XXoooo                                                 XXXooooo                     ",
"               ooooooo                                                  oXXXoooo                    ",
"               ooOoooo                                                  oooXXXoo                    ",
"              oo+@ooo                                                   oooooXXX                    ",
"              oO*oooo                                                    oooooooo                   ",
"             oo@%ooo                                                     oooooooo                   ",
"             oooXXXX                                                     oooooooo                   ",
"            ooXXXoo                                                       ooooooo                   ",
"            oXXoooo                                                       oooooooo                  ",
"            XXoooo                                                        oooo...o                  ",
"           ooooooo                                                        oo.........               ",
"           ooooooo                                                         ...........              "
};
