/* XPM */
static char *_691d431feba469394c7f013c264e630B6eTIeTBGG76yoGe[] = {
/* columns rows colors chars-per-pixel */
"100 100 12 1 ",
"  c None",
". c black",
"X c #8A878A",
"o c #C0C0C0",
"O c gray78",
"+ c #CDCDCD",
"@ c gray85",
"# c #DDDDDD",
"$ c #E1E1E1",
"% c gray91",
"& c gray92",
"* c gray93",
/* pixels */
"                                                                                                    ",
"                                                                                                    ",
"                                                                                                    ",
"                                                                                                    ",
"                                                                                                    ",
"                                                                                                    ",
"                                                                                                    ",
"                                                                                                    ",
"                                                                                                    ",
"                                                                                                    ",
"                                                                                                    ",
"                                                                                                    ",
"                                                                                                    ",
"                                                                                                    ",
"                                                                                                    ",
"                                                                                                    ",
"                                                                                                    ",
"                                                                                                    ",
"                                                                                                    ",
"                                                                                                    ",
"                                                                                                    ",
"                                                                                                    ",
"                                                                                                    ",
"                                                                                                    ",
"                                                                                                    ",
"                                                                                                    ",
"                                                                                                    ",
"                                                                                                    ",
"                                                                                                    ",
"                                                                                                    ",
"                                                                                                    ",
"                                                                                                    ",
"                                                                                                    ",
"                                                                                                    ",
"                                                                                                    ",
"                                                                                                    ",
"                                                                                                    ",
"                                         o                                                          ",
"                                       ooo                                                          ",
"                                     oooo                                                           ",
"                                  oOooooo                                                           ",
"                                  o#oooo                                                            ",
"                                 oo@oooo                                                            ",
"                                 oooooo                                                             ",
"                                ooooXXX                                                             ",
"                                ooXXXoo                                                             ",
"                               oXXXooo                                                              ",
"                               XXooooo                                                              ",
"                              ooooooo                                                               ",
"                              o+ooooo                                                               ",
"                              o*oooo                                                                ",
"                             o+%oooo                                                                ",
"                             o%oooo                                                                 ",
"                            oooooXX                                                                 ",
"                            oooXXXo                          oo                                     ",
"                           ooXXXoo                           oooo+o                                 ",
"                           XXooooo                            ooo*Ooo                               ",
"                           oooooo                             ooo%@Oo                               ",
"                          oOooooo                             ooooo@Oo                              ",
"                          o$oooo                              XXXooo@o                              ",
"                         oO*oooo                               oXXoooo                              ",
"                         O@%oooo                               ooXXXoo                              ",
"                        o@ooooo                                ooooXXXX                             ",
"                        ooooXXX                                 ooooooo                             ",
"                       oooXXXo                                  ooooOoo                             ",
"                       oXXXooo                                  oooo@Ooo                            ",
"                       XXoooo                                   ooooo@oo                            ",
"                      ooooooo                                    ooooooo                            ",
"                      ooOoooo                                    Xooooooo                           ",
"                     oo+@ooo                                     XXXXoooo                           ",
"                     oO*oooo                                      ooXXXXo                           ",
"                    oo@%ooo                                       oooooXX                           ",
"                    oooXXXX                                       oooo++oo                          ",
"                   ooXXXoo                                         ooo%%oo                          ",
"                   oXXoooo                                         oooo#oo                          ",
"                   XXoooo                                          oooo@ooo                         ",
"                  ooooooo                                          XXoooooo                         ",
"                  ooooooo                                           XXXXooo                         ",
"                 ooooooo                                            oooXXXXo                        ",
"                 ooooooo                                            ooooooXX                        ",
"                ooooooo                                              ooooooo                        ",
"                oooooXX                                              ooooooo                        ",
"               oooXXXX                                               oooooooo                       ",
"               XXXXooo                                               oooooooo                       ",
"               Xoooooo                                                ooooooo                       ",
"              ooooooo                                                 oooooooo                      ",
"              ooooooo                                                 XXXooooo                      ",
"             ooooooo                                                   oXXXXoo                      ",
"             ooooooo                                                   ooooXXXo                     ",
"            ooooooo                                                    oooooooo                     ",
"            ooooooo                                                    oooooooo                     ",
"            ooooXXX                                                     ooooooo                     ",
"           oXXXXXo                                                      oooooooo                    ",
"           XXooooo                                                      oooooooo                    ",
"          XXooooo                                                        ooooooo                    ",
"          ooooooo                                                        XXoooooo                   ",
"         ooooooo                                                         oXXooooo                   ",
"        .....ooo                                                         oooXXXoo                   ",
"      ..........                                                          ooooXXXX                  ",
"     ...........                                                          oooooooo                  "
};
