/* XPM */
static char *_30ee7a5b2f74fbfd6c29c04a14a3befb3jaoKgn87pL7nMD[] = {
/* columns rows colors chars-per-pixel */
"100 100 12 1 ",
"  c None",
". c black",
"X c #8A878A",
"o c #C0C0C0",
"O c gray78",
"+ c #CDCDCD",
"@ c gray85",
"# c #DDDDDD",
"$ c #E1E1E1",
"% c gray91",
"& c gray92",
"* c gray93",
/* pixels */
"                                                                                                    ",
"                                                                                                    ",
"                                                                                                    ",
"                                                                                                    ",
"                                                                                                    ",
"                                                                                                    ",
"                                                                                                    ",
"                                                                                                    ",
"                                                                                                    ",
"                                                                                                    ",
"                                                                                                    ",
"                                                                                                    ",
"                                                                                                    ",
"                                                                                                    ",
"                                                                                                    ",
"                                                                                                    ",
"                                                                                                    ",
"                                                                                                    ",
"                                                                                                    ",
"                                                                                                    ",
"                                                                                                    ",
"                                                                                                    ",
"                                                                                                    ",
"                                                                                                    ",
"                                                                                                    ",
"                                                                                                    ",
"                                                                                                    ",
"                                                                                                    ",
"                                                                                                    ",
"                                                                                                    ",
"                                                                                                    ",
"                                                                                                    ",
"                                                                                                    ",
"                                                                                                    ",
"                                                                                                    ",
"                                                                                                    ",
"                                                                                                    ",
"                                         o            oo                                            ",
"                                       ooo            oooo+o                                        ",
"                                     oooo              ooo*Ooo                                      ",
"                                  oOooooo              ooo%@Oo                                      ",
"                                  o#oooo               ooooo@Oo                                     ",
"                                 oo@oooo               XXXooo@o                                     ",
"                                 oooooo                 oXXoooo                                     ",
"                                ooooXXX                 ooXXXoo                                     ",
"                                ooXXXoo                 ooooXXXX                                    ",
"                               oXXXooo                   ooooooo                                    ",
"                               XXooooo                   ooooOoo                                    ",
"                              ooooooo                    oooo@Ooo                                   ",
"                              o+ooooo                    ooooo@oo                                   ",
"                              o*oooo                      ooooooo                                   ",
"                             o+%oooo                      Xooooooo                                  ",
"                             o%oooo                       XXXXoooo                                  ",
"                            oooooXX                        ooXXXXo                                  ",
"                            oooXXXo                        oooooXX                                  ",
"                           ooXXXoo                         oooo++oo                                 ",
"                           XXooooo                          ooo%%oo                                 ",
"                           oooooo                           oooo#oo                                 ",
"                          oOooooo                           oooo@ooo                                ",
"                          o$oooo                            XXoooooo                                ",
"                         oO*oooo                             XXXXooo                                ",
"                         O@%oooo                             oooXXXXo                               ",
"                        o@ooooo                              ooooooXX                               ",
"                        ooooXXX                               ooooooo                               ",
"                       oooXXXo                                ooooooo                               ",
"                       oXXXooo                                oooooooo                              ",
"                       XXoooo                                 oooooooo                              ",
"                      ooooooo                                  ooooooo                              ",
"                      ooOoooo                                  oooooooo                             ",
"                     oo+@ooo                                   XXXooooo                             ",
"                     oO*oooo                                    oXXXXoo                             ",
"                    oo@%ooo                                     ooooXXXo                            ",
"                    oooXXXX                                     oooooooo                            ",
"                   ooXXXoo                                      oooooooo                            ",
"                   oXXoooo                                       ooooooo                            ",
"                   XXoooo                                        oooooooo                           ",
"                  ooooooo                                        oooooooo                           ",
"                  ooooooo                                         ooooooo                           ",
"                 ooooooo                                          XXoooooo                          ",
"                 ooooooo                                          oXXooooo                          ",
"                ooooooo                                           oooXXXoo                          ",
"                oooooXX                                            ooooXXXX                         ",
"               oooXXXX                                             oooooooo                         ",
"               XXXXooo                                             oooooooo                         ",
"               Xoooooo                                              ooooooo                         ",
"              ooooooo                                               oooooooo                        ",
"              ooooooo                                               oooooooo                        ",
"             ooooooo                                                XXXooooo                        ",
"             ooooooo                                                 oXXXoooo                       ",
"            ooooooo                                                  oooXXXoo                       ",
"            ooooooo                                                  oooooXXX                       ",
"            ooooXXX                                                   oooooooo                      ",
"           oXXXXXo                                                    oooooooo                      ",
"           XXooooo                                                    oooooooo                      ",
"          XXooooo                                                      ooooooo                      ",
"          ooooooo                                                      oooooooo                     ",
"         ooooooo                                                       oooo...o                     ",
"        .....ooo                                                       oo.........                  ",
"      ..........                                                        ...........                 ",
"     ...........                                                        ...........                 "
};
