/* XPM */
static char *_564151333ab48cd856d193ece0f068e3axpqOlFnhVLWycQ[] = {
/* columns rows colors chars-per-pixel */
"100 100 12 1 ",
"  c None",
". c black",
"X c #8A878A",
"o c #C0C0C0",
"O c gray78",
"+ c #CDCDCD",
"@ c gray85",
"# c #DDDDDD",
"$ c #E1E1E1",
"% c gray91",
"& c gray92",
"* c gray93",
/* pixels */
"                                                                                                    ",
"                                                                                                    ",
"                                                                                                    ",
"                                                                                                    ",
"                                                                                                    ",
"                                                                                                    ",
"                                                                                                    ",
"                                                                                                    ",
"                                                                                                    ",
"                                                                                                    ",
"                                                                                                    ",
"                                                                                                    ",
"                                                                                                    ",
"                                                                                                    ",
"                                                                                                    ",
"                                                                                                    ",
"                                                                                                    ",
"                                                                                                    ",
"                                                                                                    ",
"                                                                                                    ",
"                                                                                                    ",
"                                                                                                    ",
"                                                                                                    ",
"                                                                                                    ",
"                                                                                                    ",
"                                                                                                    ",
"                                                                                                    ",
"                                                                                                    ",
"                                                                                                    ",
"                                                                                                    ",
"                                                                                                    ",
"                                                                                                    ",
"                                                                                                    ",
"                                                                                                    ",
"                                                                                                    ",
"                                                                                                    ",
"             o                                                                                      ",
"             ooo                                                                                    ",
"            ooo                                                                                     ",
"            oooo                                                                            o       ",
"            oooo                                                                            oo      ",
"            #oooX                                                                          oooo+    ",
"            @@ooXo                                                                       XXoo**o    ",
"            oooXo                                                                         XXo%@o    ",
"            ooooooo                                                                      ooXoo@O    ",
"            ooXXoo                                                                      ooXXoo@O    ",
"             oXXooo                                                                     oooXoo@     ",
"             XXooooo                                                                   ooooXXooo    ",
"             oXXoooo                                                                   ooooXooo     ",
"              oooooo                                                                  ooooOXXX      ",
"              o+oooo                                                                  ooooOooX      ",
"              o*ooooXo                                                               Xooooooo       ",
"               o+ooXX                                                                XXoooooo       ",
"               o%ooXXo                                                              ooXooooo        ",
"               oooXoo                                                               ooXXoooo        ",
"               oooXXooo                                                             oooXooo         ",
"                ooooooo                                                           ooooooXXoo        ",
"                ooXoooo                                                          Xooo%+XX           ",
"                oXooooo                                                           oooo++X           ",
"                  oOoooo                                                         oXoo@%oo           ",
"                  o$oooo                                                        ooXoooooo           ",
"                   O*ooXX                                                       ooXXooo             ",
"                  o@%oXXo                                                       oooXoooo            ",
"                    @ooXXo                                                    ooooooXXo             ",
"                   o@oooo                                                     ooooooXo              ",
"                    ooXooo                                                    ooooooXo              ",
"                   ooXXoooo                                                   oooooooX              ",
"                     oXoooo                                                 Xoooooooo               ",
"                     XXOooo                                                 oXoooooo                ",
"                     oo@@oo                                                 oXoooooo                ",
"                      oo*ooXX                                             ooooXXooo                 ",
"                      oo*%oo                                              ooooXXoooo                ",
"                      oO@XXoo                                             ooooXXoo                  ",
"                       ooXXXo                                            oooooooo                   ",
"                       ooXoooo                                          ooooooooXo                  ",
"                        oXXoooo                                         oooooooo                    ",
"                       ooXoooo                                         oXXooooo                     ",
"                        Xooooooo                                       oXXoooooo                    ",
"                         oooooo                                       ooXoooooo                     ",
"                         ooooooX                                      oooXoooo                      ",
"                         oooooX                                      oooooXooo                      ",
"                          oooooXX                                    oooooXooo                      ",
"                           ooXXoo                                  XooooooXo                        ",
"                          oooXooo                                  XoooooooX                        ",
"                           oooooooo                                XXooooooo                        ",
"                           oXooooo                                ooXooooooo                        ",
"                            Xoooooo                               ooXXoooo                          ",
"                            Xooooo                                oooXoooo                          ",
"                            oooooooo                            oooooXXoo                           ",
"                             ooooooX                            oooooXoo                            ",
"                             oooooXo                            oooooooo                            ",
"                             ooooXXo                            ooooooXX                            ",
"                             oooooXoo                         ooooooooo                             ",
"                               ooXooo                         ooooooooo                             ",
"                               oXoooo                        ....ooooo                              ",
"                               XXoooooo                      ......oo                               ",
"                                 Xoooo..                     ........o                              ",
"                                Xoo.o....                     ......                                ",
"                                 oo......                    ........                               ",
"                                o........                   ..........                              "
};
