/* XPM */
static char *b492c049b01c480cbd3a174981ec7ff2VDG4GikGAWxpYnsm[] = {
/* columns rows colors chars-per-pixel */
"100 100 12 1 ",
"  c None",
". c #1A100F",
"X c #2E1C1A",
"o c #3E2723",
"O c #6B3600",
"+ c #73482C",
"@ c gray38",
"# c #BD6304",
"$ c #995F3A",
"% c #B87939",
"& c #C27D51",
"* c #FFD180",
/* pixels */
"                                                                                                    ",
"                                                                                                    ",
"                                                                                                    ",
"                                                                                                    ",
"                                                                                                    ",
"                                                                                                    ",
"                                                                                                    ",
"                                                                                                    ",
"                                                                                                    ",
"                                                                                                    ",
"                                                                                                    ",
"                                                                                                    ",
"                                                                                                    ",
"                                                                                                    ",
"                                                                                                    ",
"                                                                                                    ",
"                                                                                                    ",
"                                                                                                    ",
"                                                                                                    ",
"                                                                                                    ",
"                                                                                                    ",
"                                                                                                    ",
"                                                                                                    ",
"                                                                                                    ",
"                                                                                                    ",
"                                                                                                    ",
"                                                                                                    ",
"                                                                                                    ",
"                                                                                                    ",
"                                                                                                    ",
"                                                                                                    ",
"                                                                                                    ",
"                                                                                                    ",
"                                                                                                    ",
"                                                                                                    ",
"                                                                                                    ",
"                                                                                                    ",
"                                                                                                    ",
"                                                                                                    ",
"                                                                                                    ",
"                                                                                                    ",
"                                                                                                    ",
"                                                                                                    ",
"                                                                                                    ",
"                                                                                                    ",
"                                                                                                    ",
"                                                                                                    ",
"                                                                                                    ",
"                                                                                                    ",
"                                                                                                    ",
"                                                                                                    ",
"                                                                                                    ",
"                                                                                                    ",
"                                                                                                    ",
"                                                                                                    ",
"                                                                                                    ",
"                                                                                                    ",
"                                                                                                    ",
"                                                                                                    ",
"                                          XXX*%**%*XXXX                                             ",
"                                          XXX*%**%*XXXX                                             ",
"                                       XXX**%OOOOOO%***XX                                           ",
"                                      X%%%OOO######OOOO%%X                                          ",
"                                     X*%OO##%%%%%%%%###O%*X                                         ",
"                                     X%O#######%%#######O%X                                         ",
"                                    X+%%OO#%%%%%%%%%%##O%%+X                                        ",
"                                    X$+*%%OOO#%%%%#OOOO%*+$X                                        ",
"                                    .X++%%**%OOOOOO%***%++X.                                        ",
"                                    .X++%%**%OOOOOO%***%++X.                                        ",
"                                    ..$++++%*%****%*%++++$..                                        ",
"                                   X+$..@@X$$X++++X$$XX@..$+XX                                      ",
"                                   X$$X....@@X+$$+X@@....X$$XX                                      ",
"                                   X$$++XX..@@@@@@@@...X++$$XX                                      ",
"                                   X&$+$XX++...@@...+++X$+$&XX                                      ",
"                                 XX+$&+$++$$$X+$$+X$$$$+$+&$++X                                     ",
"                                 XX+$&+$++$$$X+$$+X$$$$+$+&$++X                                     ",
"                                 XX$$&$$++$$$X+$$+X$$$$+$$&$$$X                                     ",
"                                 XX$$$&&++$$$+$$$$+$$$$+&&$$$$X                                     ",
"                                 XX$$+&&$$&&$$$$$$$$&&&$&&+$$$X                                     ",
"                                 XX+$+$&$$&&&$$&&$$&&&&$&$+$++X                                     ",
"                                 XX+$+$$++&&&$&&&&$&&&&+$$+$++X                                     ",
"                                   X$+$$++&$&+&&&&+&$&&+$$+$XX                                      ",
"                                   X$+$$++&$&+&&&&+&$&&+$$+$XX                                      ",
"                                   X++$$++$$&+&&&&+&$$$+$$++XX                                      ",
"                                   .+$+$++$$$+&$$&+$$$$+$+$+..                                      ",
"                                   .++X$++$$$+$$$$+$$$$+$X++..                                      ",
"                                   X.+X$$$+$$+$$$$+$$++$$X+.XX                                      ",
"                                   X..X$$$X$$++$$++$$XX$$X..XX                                      ",
"                                    X..+$$X$$X+$$+X$$XX$+..X                                        ",
"                                    X+..@@X+$X+$$+X$+XX@..+X                                        ",
"                                    X++....@@+X++X+@@....++X                                        ",
"                                     X$X++..@@@@@@@@...+X$X                                         ",
"                                     X+X++X+........+XX+X+X                                         ",
"                                      XX++$X++o++o++X$$+XX                                          ",
"                                       XXX+X$$$XX$$$X++XX                                           ",
"                                          XXX+$XX$+XXXX                                             ",
"                                             XXXXXX                                                 ",
"                                             XXXXXX                                                 ",
"                                                                                                    ",
"                                                                                                    "
};
