/* XPM */
static char *_c0bbbd8a2504d09f2983aecc767294cFC2aYbcxb3tLFi8L[] = {
/* columns rows colors chars-per-pixel */
"100 100 11 1 ",
"  c None",
". c #090300",
"X c #781313",
"o c #4C2D17",
"O c #613D24",
"+ c #B71C1C",
"@ c #D50000",
"# c #C4883F",
"$ c #E0AC69",
"% c #EAC086",
"& c #FFCD94",
/* pixels */
"                                                                                                    ",
"                                                                                                    ",
"                                                                                                    ",
"                                                                                                    ",
"                                                                                                    ",
"                                                                                                    ",
"                                                                                                    ",
"                                                                                                    ",
"                                                                                                    ",
"                                                                                                    ",
"                                                                                                    ",
"                                                                                                    ",
"                                                                                                    ",
"                                                                                                    ",
"                                                                                                    ",
"                                                                                                    ",
"                                                                                                    ",
"                                                                                                    ",
"                                                                                                    ",
"                                                                                                    ",
"                                                                                                    ",
"                                                                                                    ",
"                                                                                                    ",
"                                                                                                    ",
"                                                                                                    ",
"                                                                                                    ",
"                                                                                                    ",
"                                                                                                    ",
"                                                                                                    ",
"                                                                                                    ",
"                                                                                                    ",
"                                                                                                    ",
"                                                                                                    ",
"                                                                                                    ",
"                                                                                                    ",
"                                                                                                    ",
"                                                                                                    ",
"                                                                                                    ",
"                                                                                                    ",
"                                                                                                    ",
"                                                                                                    ",
"                                                                                                    ",
"                                                                                                    ",
"                                                                                                    ",
"                                                                                                    ",
"                                                  $$$$                                              ",
"                                                 $$$$$$                                             ",
"                                                 $$$$$$$                                            ",
"$$                                               $$$$$$$$                                           ",
"$$$$                                             $$$$$$$$$                                          ",
"$$$$$                                             $$$$$$$$$                                         ",
"$$$$$                                               $$$$$$$$$                                       ",
"$$$$$                                                $$$$$$$$$                                      ",
"$$$$$                                    $$            $$$$$$$$      @@ @                           ",
"$$$$$$                              $$$$$$$$$$          $$$$$$$$    @@@@@                           ",
"$$$$$$                            $$$$#######$$$$        $$$$$$$$$  @@@@@@@@                        ",
"$$$$$$$$                         $$$$##########$$$        $$$$$$$$   @@@@@@@                        ",
"$$$$$$$$$$                      $$$############$$$$        $$$$$$$$  @@@@@@@@@@o                    ",
"$$$$$$$$$$$$$$$$$$$$$$$$$$$$$$ $$$$##$$$$$$$$##$$$$$$       $$$$$$$$ @@@@@@@@o@o                    ",
"$$$$$$$$$$$$$$$$$$$$$$$$$$$$$$$$$$##$$$$$$$$$$#$$$$$$$       $$$$$$$$$@@@@@o@o@oo                   ",
"$$$$$$$$$$$$$$$$$$$$$$$$$$$$$$$$$$#$$$$$$$$$$$$$$$$$$$$$$####$$$$$$$$$$@@@@@oooooooooo              ",
" $$$$$$$$$$$$$$$$$$$$$$$$$$$$$$$$$$$$$$$$$$$$$$$$$$$$$$$##$$$$$$$$$$$$$$@@@@oooo$ooooooooo          ",
"  $$$$$$$$$$$$$$$$$$$$$$$$$$$$$$$$$$$$$$$$$$$$$$$$$$$$$$##$$$$$$$$$$$$$$@@$$$$$$$$$$$ooooooo        ",
"   $$$$$$$$##################$$$$$$$$$$$$$$$$$$$$$$$$$$$#$$$$$$$$$$$$$$$$$$$$$$$$$$$$$$$$oooo       ",
"        $$####################$$$$$$$$$$$$$$$$$$$$$$$$$$#$$$$$$$$$$$$$$$$$$$$$$$$$$$$$$$$$$$oo      ",
"                     #########$$$$$$$$$$$$$$$$$$$$$$$$%$#$$$$$$$$$$$$$$$$$$$$$$$$$$$$$$$$$$$$oo     ",
"                            ###$$$$$$$$$$$$$$$$$$$$$$$%%#$$$$$$$$$$$$$$$$$$$$$$$$$$$$$$O$$$$$ooo    ",
"                             ###$$$$$$$$$$$$$$$$$$$$$$$%#$$$$$$$$$$$$$$$$$$$&$$$$.$$$.$$O$$$$ooo    ",
"                              $$$$$$$$$$$$$$$$$$$$$$$$$%#$$$$$$$$$$$$$$$$$$$&$$$$$.$.$$$O$$$$ooo    ",
"                               $$$$$$$$$$$$$$$$$$$$$$$$%#$$$$$$$$$$$$$$$+++++&$$$$$.$$$$O$$$oooo    ",
"                              $$$$$$$$$$$$$$$$$$$$$$$$$%#$$$$$$$$$$$$$$$+++++&$$$$.$.$$O$$$$oooo    ",
"                              $$$$$$$$$%$$$$$$$$$$$$$$$%#$$$$$$$$$$$$$$$++XXX&$$$.$$$.$O$$$ooooo    ",
"                              $$$$$$$$$$$$$$$$$$$$$$$$$%#$$$$$$$$$$$$$$$+++++&#$$$$$$$$$$$oooooo    ",
"                              $$$$$$$$$$$$$$$$$$$$$$$$$%#$$$$%%%%%$$$$$$$$+++&$#&$$$$#$$$ooooooo    ",
"                             $$$$$$$$$$$$$$$$$$$$$$$$$$%#$$%%%$$$$%%%$$$$$$$&&$&$$####$$$ooooooo    ",
"      $$$$$               $$$$$$$$$$$$$$$$$$$$$$$$$$$$$%#$$$$$$$$$$$$$$$$$$$&$$&$$$$$$$$$ooooooo    ",
"$$$$$$$$$$$$$$$$$$$    $$$$$$$$$$$$$$$$$$$$$$$$$$$$$$$%%#$$$$$$$$$$$$$$$$$$$&$$#&$$$$$$$$$$ooooo    ",
"$$$$$$$$$$$$$$$$$$$$$$$$$$$$$$$$$$$$$$$$$$$$$$$$$$$$$$%##$$$$$$$$$$$$$$$$$$&$$#$$$$$$$$$$$$ooooo    ",
"$$$$$$$$$$$$$$$$$$$$$$$$$$$$$$$$$$$$$$$$$$$$$$$$$$$$$$%##$$$$$$$$$$$$$$$$$$&$#$$$.$$$.$O$$$$oooo    ",
"$$$$$$$$$$$$$$$$$$$$$$$$$$$$$$$$$$$$$$$$$$$$$$$$$$$$$$###$$$$$$$$$$$$$$$$$$&$$$$$$.$.$$O$$$$oooo    ",
"$$$$$$$$$$$$$$$$$$$$$$$$$$$$$$$$$$$$$$$$$$$$$$$$$$$$$####$$$$$$$$$$$$$$$$$&$$$$$$$$.$$$$O$$$ooo     ",
"$$$$$$$$$$$$$$$$$$$$$$$$$$$$$##$$$$$$$$$$$$$$$$$$$$$######$$$$$$$$$$$$$$$$$$$$$$$$.$.$$$O$$oooo     ",
"$$$$$$$$$$$$$$$##$$$$$$$$#####  $$$$$$$$$$$$$$$$$$$########$$$$$$$$$#####$$$$$$$$.$$$.$$O$$oooo     ",
"$$$$             #########       $$$$$$$$$$$$$$$$$####   ######$$$$$####@$$$$$$$$$$$$$$O$$ooooo     ",
"$$$$                              $$$$$$$$$$$$$$####       $$$$$$$$###@@@@@$$$$$$$$$$$$$oooooo      ",
"$$$                                ##$$$$$$$$#####       $$$$$$$$$##@@@@@@@oooo$$$oooooooooooo      ",
"$$                                  ############       $$$$$$$$$$##@@@@@@@oo@ooooooooooooooo        ",
"$                                      ###           $$$$$$$$$$####@@@@@@@@@oo oo o                 ",
"                                                    $$$$$$$$$$####@@@ @@@@@   oo                    ",
"                                                   $$$$$$$$$$###  @  @@@@@@   o                     ",
"                                                  $$$$$$$$$$###      @@@ @@                         ",
"                                                $$$$$$$$$$####       @@@ @@                         ",
"                                               $$$$$$$$$$                @                          ",
"                                              $$$$$$$$$$$                                           ",
"                                             $$$$$$$$$$                                             ",
"                                             $$$$$$$$$                                              ",
"                                            $$$$$$$$                                                ",
"                                           $$$$$$$$                                                 ",
"                                           $$$$$$                                                   ",
"                                            $$$$                                                    "
};
