/* XPM */
static char *_44bfa1cb7364994e28cded8acff2590RW2PfkiTsREy18ZT[] = {
/* columns rows colors chars-per-pixel */
"100 100 6 1 ",
"  c None",
". c gray13",
"X c #B71C1C",
"o c #388E3C",
"O c gray62",
"+ c #CCFF90",
/* pixels */
"                                                                                                    ",
"                                                                                                    ",
"                                                                                                    ",
"                                                                                                    ",
"                                                                                                    ",
"                                                                                                    ",
"                                                                                                    ",
"                                                                                                    ",
"                                                                                                    ",
"                                                                                                    ",
"                                                                                                    ",
"                                                                                                    ",
"                                                                                                    ",
"                                                                                                    ",
"                                                                                                    ",
"                                                                                                    ",
"                                                                                                    ",
"                                                                                                    ",
"                                                                                                    ",
"                                                                                                    ",
"                                                                                                    ",
"                                                                                                    ",
"                                                                                                    ",
"                                                                                                    ",
"                                                                                                    ",
"                                                                                                    ",
"                                                                                                    ",
"                                                                                                    ",
"                                                                                                    ",
"                                                                                                    ",
"                                                                                                    ",
"                                                                                                    ",
"                                                                                                    ",
"                                                                                                    ",
"                                                                                                    ",
"                                                                                                    ",
"                                                                                                    ",
"                                                                                                    ",
"                                                                                                    ",
"                                                                                                    ",
"                                                                                                    ",
"                                                                                                    ",
"                                                                                                    ",
"                                                                                                    ",
"                                                                                                    ",
"                                                                                                    ",
"                                                                                                    ",
"                                                                                                    ",
"                                                                                                    ",
"                                                                                                    ",
"                                                                                                    ",
"                                                                                                    ",
"                                                                                                    ",
"                                                                                                    ",
"                                                                                                    ",
"                                                                                                    ",
"                                                                                                    ",
"                                                                                                    ",
"                                                                                                    ",
"                                                                                                    ",
"                                                                                                    ",
"                                                                                                    ",
"                                                                                                    ",
"                                                                                                    ",
"                                                                                                    ",
"                                                                                                    ",
"                                                                                                    ",
"                                                                                                    ",
"                                                                                                    ",
"                                                                                                    ",
"                                                                                                    ",
"                                                                                                    ",
"                                                                                                    ",
"                                                                                                    ",
"                                                                                                    ",
"                                                                                                    ",
"                                                                       O                            ",
"                                                                      O.O                           ",
"                                                                     O...O                          ",
"                                                                    O.....O                         ",
"                                                                   O...o...O                        ",
"                                                                  O...ooo...O                       ",
"                                                                 O...+oooo...O                      ",
"                                                                O...o+ooooo...O                     ",
"                                                               O...oo+oooooo...O                    ",
"                                                              O...ooo+++++ooo...O                   ",
"                                                             O...oooo+oooo+++o...O                  ",
"                                                            O...ooooo+oooooo+oo...O                 ",
"                                                            O..oooooo+oooooo+ooo...O                ",
"                                                             O..ooooo+ooooooo+ooo...O               ",
"                                                              O..oooo+++ooooo+oooo...O              ",
"                                                               O..ooo+oo+ooooo+oo.....O             ",
"                                                                O..oo+ooo+oooo+o..X..O              ",
"                                                                 O..o+ooo+oooo+.....O               ",
"                                                                 OO..+++++++++..X..O                ",
"                                                                O..O..ooooooo.....O                 ",
"                                                               O....O..ooooo..X..O                  ",
"                                                               O.....O..ooo.....O                   ",
"                                                              O.....O O..o..X..O                    ",
"                                                             O.....O   O......O                     "
};
