/* XPM */
static char *_dbc04d786bb443084090063948b004d6IHgsQYt9QgG2qWx[] = {
/* columns rows colors chars-per-pixel */
"100 100 6 1 ",
"  c None",
". c gray13",
"X c #B71C1C",
"o c #388E3C",
"O c gray62",
"+ c #CCFF90",
/* pixels */
"                                                                                                    ",
"                                                                                                    ",
"                                                                                                    ",
"                                                                                                    ",
"                                                                                                    ",
"                                                                                                    ",
"                                                                                                    ",
"                                                                                                    ",
"                                                                                                    ",
"                                                                                                    ",
"                                                                                                    ",
"                                                                                                    ",
"                                                                                                    ",
"                                                                                                    ",
"                                                                                                    ",
"                                                                                                    ",
"                                                                                                    ",
"                                                                                                    ",
"                                                                                                    ",
"                                                                                                    ",
"                                                                                                    ",
"                                                                                                    ",
"                                                                                                    ",
"                                                                                                    ",
"                                                                                                    ",
"                                                                                                    ",
"                                                                                                    ",
"                                                                                                    ",
"                                                                                                    ",
"                                                                                                    ",
"                                                                                                    ",
"                                                                                                    ",
"                                                                                                    ",
"                                                                                                    ",
"                                                                                                    ",
"                                                                                                    ",
"                                                                                                    ",
"                                                                                                    ",
"                                                                                                    ",
"                                                                                                    ",
"                                                                                                    ",
"                                                                                                    ",
"                                                                                                    ",
"                                                                                                    ",
"                                                                                                    ",
"                                                                                                    ",
"                                                                                                    ",
"                                                                                                    ",
"                                                                                                    ",
"                                                                                                    ",
"                                                                                                    ",
"                                                                                                    ",
"                                                                                                    ",
"                                                                                                    ",
"                                                                                                    ",
"                                                                                                    ",
"                                                                                                    ",
"                                                                                                    ",
"                                                                                                    ",
"                                                                                                    ",
"                                                                                                    ",
"                                                                                                    ",
"                                                                                                    ",
"                                                                                                    ",
"                                                                                                    ",
"                                                                                                    ",
"                                                                                                    ",
"                                                                                                    ",
"                                                                                                    ",
"                                                                                                    ",
"                                                                                                    ",
"                                                                                                    ",
"                                                                                                    ",
"                                                                                                    ",
"                                                                                                    ",
"                                                                                                    ",
"                         O                                                                          ",
"                        O.O                                                                         ",
"                       O...O                                                                        ",
"                      O.....O                                                                       ",
"                     O...o...O                                                                      ",
"                    O...ooo...O                                                                     ",
"                   O...oooo+...O                                                                    ",
"                  O...ooooo+o...O                                                                   ",
"                 O...oooooo+oo...O                                                                  ",
"                O...ooo+++++ooo...O                                                                 ",
"               O...o+++oooo+oooo...O                                                                ",
"              O...oo+oooooo+ooooo...O                                                               ",
"             O...ooo+oooooo+oooooo..O                                                               ",
"            O...ooo+ooooooo+ooooo..O                                                                ",
"           O...oooo+ooooo+++oooo..O                                                                 ",
"          O.....oo+ooooo+oo+ooo..O                                                                  ",
"           O..X..o+oooo+ooo+oo..O                                                                   ",
"            O.....+oooo+ooo+o..O                                                                    ",
"             O..X..+++++++++..OO                                                                    ",
"              O.....ooooooo..O..O                                                                   ",
"               O..X..ooooo..O....O                                                                  ",
"                O.....ooo..O.....O                                                                  ",
"                 O..X..o..O O.....O                                                                 ",
"                  O......O   O.....O                                                                "
};
