/* XPM */
static char *_2341347a94c4d1ef1ba43e373d2eabd94uBh9RjAjSLGlrY[] = {
/* columns rows colors chars-per-pixel */
"100 100 12 1 ",
"  c gray20",
". c gray26",
"X c #545154",
"o c #52585E",
"O c gray40",
"+ c #8C1717",
"@ c #B71C1C",
"# c #76FF03",
"$ c #00E676",
"% c #607D8B",
"& c #749DA1",
"* c #18FFFF",
/* pixels */
"........... ................................ ......................................X................",
".......... ... . . . . ...................... .....................................X................",
".......... ... . . . . ....................... ....................................X......     .....",
"......... .... . . . . ....................... ....................................X..... OOOOO ....",
"......... .... . . . . ....................... ....................................X.... OOOOOOO ...",
"......... .................................... ....................................X.... OOO@OOO ...",
"......... .... . . . . ....................... ....................................X.... OOOOOOO ...",
"......... .... . . . . ....................... ....................................X..... OOOOO ....",
".......... ... . . . . ...................... .....................................X......     .....",
"........... ................................ ......................................X................",
"                                                                                                    ",
"....................................................................................................",
"....................................................................................................",
"........++++++++++++++++................................................+++++++++++++++++...........",
"........++++++++++++++++...........###.......+++.......***..............+++++++++++++++++...........",
"..................................#####.....+++++.....*****.........................................",
"..................................#####.....+++++.....*****.........................................",
"..................................#####.....+++++.....*****.........................................",
"...................................###.......+++.......***..........................................",
"....................................................................................................",
"....................................................................................................",
".....................                                                         ......................",
"....................                                                          ......................",
"....................  oooooooooooooooooooooooooooooooooooooooooooooooooooooo  ......................",
"...................   o.....................................................   .....................",
"...................  o......................................................o  .....................",
"..................  oo.......................................................o  ....................",
"..................  o........................................................o   ...................",
".................  oo.........................................................o  ...................",
".................  o..........................................................o   ..................",
"................  oo......                                              .......o  ..................",
"...............   o......                                                ......o   .................",
"...............  oo......  ..............   o..........................  .......o   ................",
"..............   o......   ..............   o..........................   .......o  ................",
"..............  o.......  ................   o..........................   ......o   ...............",
".............   o......   ................   o...........................  .......o  ...............",
".............  o......   ..................   o..........................   ......o   ..............",
"............   o......  ...................   o...........................  .......o   .............",
"............  o......   ....................   o................###XXXX...   ......o   .............",
"...........  oo......  .....................   o......................X....   ......o   ............",
"..........   o......   .....................   o......................X.....  ......oo  ............",
"..........  o......   .......................   o.....................X.....   ......o   ...........",
".........   o......  ........................   o.....................X......   ......o   ..........",
".........  o......   .........................   o....................X.......  ......o   ..........",
"........   o......  ..........................   o.............#......X.......   ......o   .........",
"........  o......   ..........................    o............#XXXXXXX........  ......o   .........",
".......   o.....   ............................   o............................   ......o   ........",
".......  o......  ....XXXXXXXXXXXXXXXX.........    o............................   .....o   ........",
"......   o.....   ....X..............X..........   oooooooooooooooooooooooooooooo  ......o  ........",
"......  o......  .....X..............X..........                                    .....o  ........",
"......  o.....   .....X..XXXXXXXXXX..X..........                                    .....o  ........",
"......  o.....  ......X..............X..........                                    .....o  ........",
"......  o.....  ......X....XXXXXXX...X.........    o..............................  .....o  ........",
"......  o.....  ......X..............X.........   o...............................  .....o  ........",
"......  o.....  ......X..XXXXXXXXXX..X........    o...............................  .....o  ........",
"......  o.....  ......X..X........X..X........   o................................  .....o  ........",
"......  o.....  ......X..X.+.    .X..X.......    o................................  .....o  .$.@.%%.",
"......  o.....  ......X..X........X..X.......   o.................................  .....o  .$......",
"......  o.....  ......X..X.+..  ..X..X......    o..........XXXXXXXXXXXXXXXXXXXXXXX  .....o  .$.@.%%.",
"......  o.....  ......X..X........X..X......   o...........X......................  .....o  .$......",
"......  o.....  ......X..XXXXXXXXXX..X......   o...........X......................  .....o  .$.@....",
"......  o.....  ......X..............X.....   o.............X.....................  .....o  ........",
"......  o.....  ......X..............X.....  o...............X....................  .....o  ........",
"......  o.....  ......X..............X....   o...............X....................  .....o  ........",
"......  o.....  ......XXXXXXXXXXXXXXXX....  o................X....................  .....o  ........",
"......  o.....  .........................   o................X....................  .....o  ........",
"......  o.....  .........................  o................XX....................  .....o  ........",
"......  o.....                             o...............X......................  .....o  ........",
"......  o.....                            o................X......................  .....o  ........",
"......  o.....                            o................X......................  .....o  ........",
"......  oo.....   oooooooooooooooooooooo  o................X.....................   ....oo  ........",
".......  o.....   .......................  o...............X.....................  ....oo   ........",
".......   o.....   ......................  o...............X....................   ....o    ........",
"........  o.....   .......................  o..............X....................  ....oo   .........",
"........   o.....   ......................  o..............X...................   ....o    .........",
".........  o.....   .......................  o.............X...................  ....oo   ..........",
".........   o.....   ......................  o.............X..................   ....o    ..........",
"..........  o.....   .......................  o............X..................  ....oo   ...........",
"..........   o.....   ......................  o............X.................   ....o    ...........",
"...........  o.....   .......................  o...........X................   ....oo   ............",
"...........   o.....   ......................  o...........X................  .....o   .............",
"............  o......  ......................   o..........X...............   ....oo   .............",
"............   o.....   ......................  o..........X...............  .....o   ..............",
".............  o......  ......................   o.........X..............   ....oo   ..............",
".............   o.....   ......................  o.........X..............  .....o   ...............",
"..............  o......   .....................   o........X.............   ....o    ...............",
"..............   o.....   ......................  o........X.............  .....o   ................",
"...............  o......   .....................   o.......X............   ....o   .................",
"...............   o.....   ......................  o.......X............  .....o   .................",
"................  o......   .....................   o......X...........   ....o   ..................",
"................   o......  .....................   o......X..........   .....o   ..................",
".................  o......   .....................   o.....X..........  .....o   .........XXXXXXXX..",
".................   o......  .....................   o.....X.........   .....o   ...................",
"..................  o......   .....................   o....X.........  .....o   ..........XXXXXXXX..",
"..................   o......  .....................   o....X........   .....o  .....................",
"...................  o......   .....................   o...X........  .....o   ...............$$$$..",
"...................   o......  ...   ...............   o...X.......   .....o  ......................",
"....................  o......   ..     ..............   o..X.......  .....o   ......................",
"....................   o......  ....     ............    ..X......   .....&  .......................",
".....................  o......   .....................   ..X......  .....&   ......................."
};
