/* XPM */
static char *e2d2e0b7c9044babd10e30976b1b7abdJhfN0rXdIhrB27fI[] = {
/* columns rows colors chars-per-pixel */
"100 100 13 1 ",
"  c None",
". c #090936",
"X c #4C2D17",
"o c #613D24",
"O c #B80B0B",
"+ c #C4883F",
"@ c #E0AC69",
"# c #00BBFF",
"$ c #E68383",
"% c #EAC086",
"& c #FFCD94",
"* c #FFDBAC",
"= c white",
/* pixels */
"                                                                                                    ",
"                                        XXXXXXXXXXXXXX                                              ",
"                                    XXXXXXXXXXXXXXXXXXX                                             ",
"                                  XXXXXXXXXXXXXXXXXXXXXX                                            ",
"                                  XXXXXXXXXXXXXXXXX@@@@XX                                           ",
"                                 XXXXXX@@@XXXXXXX@@@@@@@XX                                          ",
"                                 XXXX@@@@@@@XXXX@@@@@@@@XX                                          ",
"                                 XXX@@@@@@@@XXX@@@@@@@@@XXX                                         ",
"                                 XXX@ooo@@@@@@@@@@ooo@@@@XX                                         ",
"                                 XX@o@@@oo@@@@@@oo@@@o@@@XX                        @@@              ",
"                                 XX@@@@@@@oo@@oo@@@@@@@@@XX                      @@@@++             ",
"                                 XX@@@===@@@@++@@===@@@@@XXX                    @@@@+++             ",
"                                 XX@@==#==@@@+@@==#==@@@@@XX                   @@@@+++              ",
"                                 XX@==###==@@+@==###==@@@@XX                  @@@@++                ",
"                                XXX@==#.#==@@+@==#.#==@@@@XX                  @@@@++                ",
"                                 X@@@==#==@@@@@@==#==@@@@@XX                  @@@@+                 ",
"                                XX@@@@===@@&@@&@@===@@@@@@@XX                @@@@@+%                ",
"                               XXX@@@@@@@@@+&&+@@@@@@@@@@@XXXXX              @@@@@%@                ",
"                  @@@++       XX XX@@*@@@@+@@@@+@@@@@*@@@@XX                 @@@@%%@@               ",
"                  @@@@+         XXX@@+*@@+@@@@@@+@@@*@@@@@XXXX             @@@@@%%@@%               ",
"                    @@@+        X X@@@+*************@@@@@@XX             @@@@@@@@@@@%@              ",
"                     @@+         XX@@@+*==========*@@@@@@@ XX          @@@@@@@@@@@@%%@              ",
"                     @@@+        X  @@@+*OOOOOOOO*@@@@@@@@            @@@@@@@@@+@@%@@               ",
"                    @@@@+           @@@@@*$$$$$$*@@@@@@@@            @@@@@@@@@@@+@@@                ",
"                  %@@@@@+            +@@@@******@@@@@@@@@           @@@@@@@@@@@+++@                 ",
"                 @@%%@@@@@          ++@@@@@@@@@@@@@@@@@@@          @@@@@@@@@@@+++                   ",
"                 @@@@%@@@@          ++@@@@@@@@@@@@@@@@@@@@        @@@@@@@@@@@++                     ",
"                 %%%@@%@@@         +++@@@@@@@@@@@@@@@@@@@@@       @@@@@@@@@@++                      ",
"                 @@%%%@@@@       @++++@@@@@@@%@@@@@@@@@@@@@      @@@@@@@@@++                        ",
"                 @@@@%@@@@      ++++@@@@@@@@@%@@@@@@@@@@@@@      @@@@@@@@@                          ",
"                 @@@@@@@@@     @+++@@@@@@@@@@%@@@@@@@@@@@@@@    @@@@@@@@@                           ",
"                   @@@@@@@     +++@@@@@@@@@@@@%@@@@@@@@@@@@@   @@@@@@@@@                            ",
"                    @@@@@@     ++@@@@@@@@@@@@@%@@@@@@@@@@@@@@ @@@@@@@@@                             ",
"                     @@@@@@   +++@@@@@@@@@@@@@%@@@@@@@@@@@@@@@@@@@@@@@                              ",
"                     @@@@@@  +++@@@@+@@@@@@@@@%@@@@@@@@@@@@@@@@@@@@@@                               ",
"                      @@@@@@+++@@@@@+@@@@@@@@%%@@@@@@@@@@@@@@@@@@@@@                                ",
"                      @@@@@@++@@@@@@+@@@@@@@@%@@@@@@@@@@@@@++@@@@@@                                 ",
"                      @@@@@@+@@@@@@@+@@@@@@@@%@@@@@@@@@@@@@++@@@@@                                  ",
"                      @@@@@@+@@@@@@ ++@@@@@@@@@@@@@@@@@@@@@++@@@@                                   ",
"                       @@@@@@@@@@@@ +++@@@@@@@@@@@@@@@@@@+++ @@@                                    ",
"                        @@@@@@@@@@   ++++++++++++++++++++++@                                        ",
"                        @@@@@@@@@@   ++++++%%%%%%%%%%%@@@@@@                                        ",
"                         @@@@@@@@    ++++%%%@@@@@@@@@%%@@@@@                                        ",
"                          @@@@@     ++++@@@@@@@@@@@@@@@@@@@@@                                       ",
"                                    +++@@@@@@@@@@@@@@@@@@@@@@@                                      ",
"                                   +++@@@@@@@@@@@@@@@@@@@@@@@@                                      ",
"                                   ++@@@@@@@@@@@@@@@@@@@@@@@@@@                                     ",
"                                  ++@@@@@@@@@@@@@@@@@@@@@@@@@@@@                                    ",
"                                  ++@@@@@@@@@@@@@@@@@@@@@@@@@@@@@                                   ",
"                                 ++@@@@@@@@@@@@@@@@@@@@@@@@@@@@@@                                   ",
"                                 ++@@@@@@@@@@@@@@@@@@@@@@@@@++++@                                   ",
"                                 ++@@@@@@@@@@@@@@@@@@@@@@@@@@+++@@                                  ",
"                                 +@@@@@@@@@@@@@@@@@@@@@@@@@@@@+++@                                  ",
"                                 +@@@@@@@@@@@@@@@@@@@@@@@@@@@@+++@                                  ",
"                                 +@@@@@@@@@@@@@@@@@@@@@@@@@@@@+++@@                                 ",
"                                ++@@@@@@@@@@@@@@@@@@@@@@@@@@@@+++@@                                 ",
"                                ++@@@@@@@@@@@@@@@@@@@@@@@@@@@@+++@                                  ",
"                                ++@@@@@@@@@@@@@@%@@@@@@@@@@@@@+++@                                  ",
"                                 +@@@@@@@@@@@@@@@@@@@@@@@@@@@@+++@                                  ",
"                                 +@@@@@@@@@@@@@@@@@@@@@@@@@@@@++@@                                  ",
"                                 ++@@@@@@@@@@@@@@@@@@@@@@@@@@++@@@                                  ",
"                                  +@@@@@@@@@@@@@@@@@@@@@@@@@+++@@                                   ",
"                                   @@@@@@@@@@@@@@@@@@@@@@@@++@@@@                                   ",
"                                    @@@@@@@@@@@@@@@@@@@@@@@@@@@@                                    ",
"                                     @@@@@@@@@@@@@@@@@@@@@@@@@@                                     ",
"                                      @@@@@@@@@@@@@@+@@@@@@@@@                                      ",
"                                      +@@@@@@@@@@@ @++@@@@@@@                                       ",
"                                     ++@@@@@@@      ++++@@@@@@                                      ",
"                                     +@@@@@@@        ++++@@@@@                                      ",
"                                     +@@@@@@@         +++@@@@@                                      ",
"                                     +@@@@@@@         +++@@@@@                                      ",
"                                    ++@@@@@@          +++@@@@@                                      ",
"                                    +@@@@@@@          +++@@@@@                                      ",
"                                    +@@@@@@@          +++@@@@@                                      ",
"                                    +@@@@@@           +++@@@@@                                      ",
"                                    +@@@@@@           +++@@@@@                                      ",
"                                    +@@@@@@            ++@@@@@                                      ",
"                                    +@@@@@@            ++@@@@@                                      ",
"                                    +@@@@@@@           ++@@@@@                                      ",
"                                    +@@@@@@@           ++@@@@@                                      ",
"                                     +@@@@@@           ++@@@@@                                      ",
"                                     +@@@@@@           ++@@@@@                                      ",
"                                     @@@@@@@           ++@@@@@                                      ",
"                                     @@@@@@@           ++@@@@@                                      ",
"                                     @@@@@@@           ++@@@@@                                      ",
"                                     @@@@@@@           ++@@@@@                                      ",
"                                     @@@@@@@@          +@@@@@@                                      ",
"                                     @@@@@@@@          @@@@@@@@                                     ",
"                                     @@@@@@@@          @@@@@@@@                                     ",
"                                     @@@@@@@@           @@@@@@@@                                    ",
"                                     @@@@@@@@           @@@@@@@@                                    ",
"                                     @@@@@@@            @@@@@@@@@@                                  ",
"                                     @@@@@@@            @@@@@@@@@@@@@@                              ",
"                                   @@@@@@@@@            @@@@@@@@@@@@@@@                             ",
"                                  @@@@@@@@@@             @@@@@@@@@@@@@@                             ",
"                                 @@@@@@@@@@@              @@@@@@@@@@@@@@                            ",
"                                @@@@@@@@@@@@               @@@@@@@@@@@@@                            ",
"                                @@@@@@@@@@@@                  @@@@@@@@@                             ",
"                                 @@@@@@@@@                                                          ",
"                                                                                                    "
};
