/* XPM */
static char *_2f1fb0d81b24cc5eb5ce73473d63915kO9Tg8yQigBmPwVg[] = {
/* columns rows colors chars-per-pixel */
"100 100 13 1 ",
"  c None",
". c #090936",
"X c #4C2D17",
"o c #613D24",
"O c #B80B0B",
"+ c #C4883F",
"@ c #E0AC69",
"# c #00BBFF",
"$ c #E68383",
"% c #EAC086",
"& c #FFCD94",
"* c #FFDBAC",
"= c white",
/* pixels */
"                                                                                                    ",
"                                                  XXXXXXXXXXXXXX                                    ",
"                                                 XXXXXXXXXXXXXXXXXXX                                ",
"                                                XXXXXXXXXXXXXXXXXXXXXX                              ",
"                                               XX@@@@XXXXXXXXXXXXXXXXX                              ",
"                                              XX@@@@@@@XXXXXXX@@@XXXXXX                             ",
"                                              XX@@@@@@@@XXXX@@@@@@@XXXX                             ",
"                                             XXX@@@@@@@@@XXX@@@@@@@@XXX                             ",
"                                             XX@@@@ooo@@@@@@@@@@ooo@XXX                             ",
"                  @@@                        XX@@@o@@@oo@@@@@@oo@@@o@XX                             ",
"                 ++@@@@                      XX@@@@@@@@@oo@@oo@@@@@@@XX                             ",
"                 +++@@@@                    XXX@@@@@===@@++@@@@===@@@XX                             ",
"                  +++@@@@                   XX@@@@@==#==@@+@@@==#==@@XX                             ",
"                    ++@@@@                  XX@@@@==###==@+@@==###==@XX                             ",
"                    ++@@@@                  XX@@@@==#.#==@+@@==#.#==@XXX                            ",
"                     +@@@@                  XX@@@@@==#==@@@@@@==#==@@@X                             ",
"                    %+@@@@@                XX@@@@@@@===@@&@@&@@===@@@@XX                            ",
"                    @%@@@@@              XXXXX@@@@@@@@@@@+&&+@@@@@@@@@XXX                           ",
"                   @@%%@@@@                 XX@@@@*@@@@@+@@@@+@@@@*@@XX XX       ++@@@              ",
"                   %@@%%@@@@@             XXXX@@@@@*@@@+@@@@@@+@@*+@@XXX         +@@@@              ",
"                  @%@@@@@@@@@@@             XX@@@@@@*************+@@@X X        +@@@                ",
"                  @%%@@@@@@@@@@@@          XX @@@@@@@*==========*+@@@XX         +@@                 ",
"                   @@%@@+@@@@@@@@@            @@@@@@@@*OOOOOOOO*+@@@  X        +@@@                 ",
"                    @@@+@@@@@@@@@@@            @@@@@@@@*$$$$$$*@@@@@           +@@@@                ",
"                     @+++@@@@@@@@@@@           @@@@@@@@@******@@@@+            +@@@@@%              ",
"                       +++@@@@@@@@@@@          @@@@@@@@@@@@@@@@@@@++          @@@@@%%@@             ",
"                         ++@@@@@@@@@@@        @@@@@@@@@@@@@@@@@@@@++          @@@@%@@@@             ",
"                          ++@@@@@@@@@@       @@@@@@@@@@@@@@@@@@@@@+++         @@@%@@%%%             ",
"                            ++@@@@@@@@@      @@@@@@@@@@@@@%@@@@@@@++++@       @@@@%%%@@             ",
"                              @@@@@@@@@      @@@@@@@@@@@@@%@@@@@@@@@++++      @@@@%@@@@             ",
"                               @@@@@@@@@    @@@@@@@@@@@@@@%@@@@@@@@@@+++@     @@@@@@@@@             ",
"                                @@@@@@@@@   @@@@@@@@@@@@@%@@@@@@@@@@@@+++     @@@@@@@               ",
"                                 @@@@@@@@@ @@@@@@@@@@@@@@%@@@@@@@@@@@@@++     @@@@@@                ",
"                                  @@@@@@@@@@@@@@@@@@@@@@@%@@@@@@@@@@@@@+++   @@@@@@                 ",
"                                   @@@@@@@@@@@@@@@@@@@@@@%@@@@@@@@@+@@@@+++  @@@@@@                 ",
"                                    @@@@@@@@@@@@@@@@@@@@@%%@@@@@@@@+@@@@@+++@@@@@@                  ",
"                                     @@@@@@++@@@@@@@@@@@@@%@@@@@@@@+@@@@@@++@@@@@@                  ",
"                                      @@@@@++@@@@@@@@@@@@@%@@@@@@@@+@@@@@@@+@@@@@@                  ",
"                                       @@@@++@@@@@@@@@@@@@@@@@@@@@++ @@@@@@+@@@@@@                  ",
"                                        @@@ +++@@@@@@@@@@@@@@@@@@+++ @@@@@@@@@@@@                   ",
"                                            @++++++++++++++++++++++   @@@@@@@@@@                    ",
"                                            @@@@@@%%%%%%%%%%%++++++   @@@@@@@@@@                    ",
"                                            @@@@@%%@@@@@@@@@%%%++++    @@@@@@@@                     ",
"                                           @@@@@@@@@@@@@@@@@@@@@++++     @@@@@                      ",
"                                          @@@@@@@@@@@@@@@@@@@@@@@+++                                ",
"                                          @@@@@@@@@@@@@@@@@@@@@@@@+++                               ",
"                                         @@@@@@@@@@@@@@@@@@@@@@@@@@++                               ",
"                                        @@@@@@@@@@@@@@@@@@@@@@@@@@@@++                              ",
"                                       @@@@@@@@@@@@@@@@@@@@@@@@@@@@@++                              ",
"                                       @@@@@@@@@@@@@@@@@@@@@@@@@@@@@@++                             ",
"                                       @++++@@@@@@@@@@@@@@@@@@@@@@@@@++                             ",
"                                      @@+++@@@@@@@@@@@@@@@@@@@@@@@@@@++                             ",
"                                      @+++@@@@@@@@@@@@@@@@@@@@@@@@@@@@+                             ",
"                                      @+++@@@@@@@@@@@@@@@@@@@@@@@@@@@@+                             ",
"                                     @@+++@@@@@@@@@@@@@@@@@@@@@@@@@@@@+                             ",
"                                     @@+++@@@@@@@@@@@@@@@@@@@@@@@@@@@@++                            ",
"                                      @+++@@@@@@@@@@@@@@@@@@@@@@@@@@@@++                            ",
"                                      @+++@@@@@@@@@@@@@%@@@@@@@@@@@@@@++                            ",
"                                      @+++@@@@@@@@@@@@@@@@@@@@@@@@@@@@+                             ",
"                                      @@++@@@@@@@@@@@@@@@@@@@@@@@@@@@@+                             ",
"                                      @@@++@@@@@@@@@@@@@@@@@@@@@@@@@@++                             ",
"                                       @@+++@@@@@@@@@@@@@@@@@@@@@@@@@+                              ",
"                                       @@@@++@@@@@@@@@@@@@@@@@@@@@@@@                               ",
"                                        @@@@@@@@@@@@@@@@@@@@@@@@@@@@                                ",
"                                         @@@@@@@@@@@@@@@@@@@@@@@@@@                                 ",
"                                          @@@@@@@@@+@@@@@@@@@@@@@@                                  ",
"                                           @@@@@@@++@ @@@@@@@@@@@+                                  ",
"                                          @@@@@@++++      @@@@@@@++                                 ",
"                                          @@@@@++++        @@@@@@@+                                 ",
"                                          @@@@@+++         @@@@@@@+                                 ",
"                                          @@@@@+++         @@@@@@@+                                 ",
"                                          @@@@@+++          @@@@@@++                                ",
"                                          @@@@@+++          @@@@@@@+                                ",
"                                          @@@@@+++          @@@@@@@+                                ",
"                                          @@@@@+++           @@@@@@+                                ",
"                                          @@@@@+++           @@@@@@+                                ",
"                                          @@@@@++            @@@@@@+                                ",
"                                          @@@@@++            @@@@@@+                                ",
"                                          @@@@@++           @@@@@@@+                                ",
"                                          @@@@@++           @@@@@@@+                                ",
"                                          @@@@@++           @@@@@@+                                 ",
"                                          @@@@@++           @@@@@@+                                 ",
"                                          @@@@@++           @@@@@@@                                 ",
"                                          @@@@@++           @@@@@@@                                 ",
"                                          @@@@@++           @@@@@@@                                 ",
"                                          @@@@@++           @@@@@@@                                 ",
"                                          @@@@@@+          @@@@@@@@                                 ",
"                                         @@@@@@@@          @@@@@@@@                                 ",
"                                         @@@@@@@@          @@@@@@@@                                 ",
"                                        @@@@@@@@           @@@@@@@@                                 ",
"                                        @@@@@@@@           @@@@@@@@                                 ",
"                                      @@@@@@@@@@            @@@@@@@                                 ",
"                                  @@@@@@@@@@@@@@            @@@@@@@                                 ",
"                                 @@@@@@@@@@@@@@@            @@@@@@@@@                               ",
"                                 @@@@@@@@@@@@@@             @@@@@@@@@@                              ",
"                                @@@@@@@@@@@@@@              @@@@@@@@@@@                             ",
"                                @@@@@@@@@@@@@               @@@@@@@@@@@@                            ",
"                                 @@@@@@@@@                  @@@@@@@@@@@@                            ",
"                                                              @@@@@@@@@                             ",
"                                                                                                    "
};
