/* XPM */
static char *_9806cf9a45f4e189215721007fd3763AXTaDfIsBc2Ddypo[] = {
/* columns rows colors chars-per-pixel */
"100 100 5 1 ",
"  c None",
". c gray13",
"X c #B71C1C",
"o c #FFEBEE",
"O c white",
/* pixels */
"                                                                                                    ",
"                                                                                                    ",
"                                                                                                    ",
"                                                                                                    ",
"                                                                                                    ",
"                                                                                                    ",
"                                                                                                    ",
"                                                                                                    ",
"                                                                                                    ",
"                                                                                                    ",
"                                                                                                    ",
"                                                                                                    ",
"                                                                                                    ",
"                                                                                                    ",
"                                                                                                    ",
"                                                                                                    ",
"                                                                                                    ",
"                                                                                                    ",
"                                                                                                    ",
"                                                                                                    ",
"                                                                                                    ",
"                                                                                                    ",
"                                                                                                    ",
"                                                                                                    ",
"                                                                                                    ",
"                                                                                                    ",
"                                                                                                    ",
"  OO      OO    OOOO    OO    OO      OO          OOOO      OOOO      OOOOOO  OOOOOOOO        OO    ",
"  OO      OO    OOOO    OO    OO      OO          OOOO      OOOO      OOOOOO  OOOOOOOO        OO    ",
"  OO      OO  OO    OO  OO    OO      OO        OO    OO  OO    OO  OO        OO              OO    ",
"  OO      OO  OO    OO  OO    OO      OO        OO    OO  OO    OO  OO        OO              OO    ",
"    OOOOOO    OO    OO  OO    OO      OO        OO    OO  OO    OO    OOOO    OOOOOO          OO    ",
"    OOOOOO    OO    OO  OO    OO      OO        OO    OO  OO    OO    OOOO    OOOOOO          OO    ",
"      OO      OO    OO  OO    OO      OO        OO    OO  OO    OO        OO  OO                    ",
"      OO      OO    OO  OO    OO      OO        OO    OO  OO    OO        OO  OO                    ",
"      OO        OOOO      OOOO        OOOOOOOO    OOOO      OOOO    OOOOOO    OOOOOOOO        OO    ",
"      OO        OOOO      OOOO        OOOOOOOO    OOOO      OOOO    OOOOOO    OOOOOOOO        OO    ",
"                                                                                                    ",
"                                                                                                    ",
"                                                                                                    ",
"                                                                                                    ",
"                                                                                                    ",
"                                           ooooooooooooooo                                          ",
"                                        ooooooooooooooooooooo                                       ",
"                                     ooooooooooooooooooooooooo                                      ",
"                                    oooooooooooooooooooooooooo                                      ",
"                                   oooooooooooooooooooooooooooo                                     ",
"                                  ooooooooooooooooooooooooooooo                                     ",
"                                  oooooooooooooooooooooooooooooo                                    ",
"                                 oooooo....oooooooooo....ooooooo                                    ",
"                                 ooooo......oooooooo......ooooooo                                   ",
"                                 oooo........oooooo........oooooo                                   ",
"                                 ooo..........oooo..........ooooo                                   ",
"                                 ooo..........oooo..........ooooo                                   ",
"                                 ooo..........oooo..........ooooo                                   ",
"                                 ooo..........oooo..........ooooo                                   ",
"                                 ooo..........oooo..........ooooo                                   ",
"                                 ooo..........oooo..........ooooo                                   ",
"                                 oooo........oooooo........oooooo                                   ",
"                                 ooooo......oooooooo......oooooo                                    ",
"                                 oooooo....oooooooooo....oooooo                                     ",
"                                  oooooooooooooooooooooooooooo                                      ",
"                                  oooooooooooooooooooooooooooo                                      ",
"                                   oooooooooooooooooooooooooo                                       ",
"                                   oooooooooooooooooooooooo                                         ",
"                                        ooo..oo..oo..ooo                                            ",
"                                        ooo..oo..oo..ooo                                            ",
"                                        ooo..oo..oo..ooo                                            ",
"                                        ooo..oo..oo..ooo                                            ",
"                                        ooo..oo..oo..ooo                                            ",
"                                        ooo..oo..oo..ooo                                            ",
"                                        ooo..oo..oo..ooo                                            ",
"                                        ooo..oo..oo..ooo                                            ",
"                                         oo..oo..oo..ooo                                            ",
"                                          o..oo..oo..o                                              ",
"                                                                                                    ",
"                                                                                                    ",
"                                                                                                    ",
"                                                                                                    ",
"                                                                                                    ",
"                                                                                                    ",
"                                                                                                    ",
"                                                                                                    ",
"                                                                                                    ",
"                                                                                                    ",
"                                                                                                    ",
"                                                                                                    ",
"                                                                                                    ",
"                                                                                                    ",
"                    XXX  XXX  XXXX  XXX  XXX   XXXX  XXX  XX    XXXXX  XX     XX  X  X XXX XXXXX    ",
"                 X  X  X X  X X    X    X      X    X    X  X     X   X  X   X  X X  X  X    X      ",
"                  X XXX  XXX  XXX   XX   XX    XXX   XX  X        X   X  X   X  X X  X  X    X      ",
"                 X  X    X X  X       X    X   X       X X  X     X   X  X   X X  X  X  X    X      ",
"                    X    X  X XXXX XXX  XXX    XXXX XXX   XX      X    XX     X X  XX  XXX   X      ",
"                                                                                                    ",
"                                                                                                    ",
"                                                                                                    ",
"                                                                                                    ",
"                                                                                                    ",
"                                                                                                    "
};
