/* XPM */
static char *c7aa50d2d0a64fceec6300dcd38709627NIfKzorghPF1gQM[] = {
/* columns rows colors chars-per-pixel */
"100 100 3 1 ",
"  c None",
". c #B71C1C",
"X c white",
/* pixels */
"                                                                                                    ",
"                                                                                                    ",
"                                                                                                    ",
"                                                                                                    ",
"                                                                                                    ",
"                                                                                                    ",
"                                                                                                    ",
"                                                                                                    ",
"                                                                                                    ",
"                                                                                                    ",
"                                                                                                    ",
"                                                                                                    ",
"                                                                                                    ",
"                                                                                                    ",
"                                                                                                    ",
"                                                                                                    ",
"                                                                                                    ",
"                                                                                                    ",
"                                                                                                    ",
"                                                                                                    ",
"                                                                                                    ",
"                                                                                                    ",
"                                                                                                    ",
"                                                                                                    ",
"                                                                                                    ",
"                                                                                                    ",
"                                                                                                    ",
"                                                                                                    ",
"                                                                                                    ",
"                                                                                                    ",
"                                                                                                    ",
"                                                                                                    ",
"                                                                                                    ",
"                                                                                                    ",
"            XX      XX    XXXX    XX    XX      XX      XX  XXXXXX  XX    XX        XX              ",
"            XX      XX    XXXX    XX    XX      XX      XX  XXXXXX  XX    XX        XX              ",
"            XX      XX  XX    XX  XX    XX      XX      XX    XX    XXXX  XX        XX              ",
"            XX      XX  XX    XX  XX    XX      XX      XX    XX    XXXX  XX        XX              ",
"              XXXXXX    XX    XX  XX    XX      XX  XX  XX    XX    XX  XXXX        XX              ",
"              XXXXXX    XX    XX  XX    XX      XX  XX  XX    XX    XX  XXXX        XX              ",
"                XX      XX    XX  XX    XX      XXXX  XXXX    XX    XX    XX                        ",
"                XX      XX    XX  XX    XX      XXXX  XXXX    XX    XX    XX                        ",
"                XX        XXXX      XXXX        XX      XX  XXXXXX  XX    XX        XX              ",
"                XX        XXXX      XXXX        XX      XX  XXXXXX  XX    XX        XX              ",
"                                                                                                    ",
"                                                                                                    ",
"                                                                                                    ",
"                                                                                                    ",
"                                                                                                    ",
"                                                                                                    ",
"                                                                                                    ",
"                                                                                                    ",
"                                                                                                    ",
"                                                                                                    ",
"                                                                                                    ",
"                                                                                                    ",
"                                                                                                    ",
"                                                                                                    ",
"                                                                                                    ",
"                                                                                                    ",
"                                                                                                    ",
"                                                                                                    ",
"                                                                                                    ",
"                                                                                                    ",
"                                                                                                    ",
"                                                                                                    ",
"                                                                                                    ",
"                                                                                                    ",
"                                                                                                    ",
"                                                                                                    ",
"                                                                                                    ",
"                                                                                                    ",
"                                                                                                    ",
"                                                                                                    ",
"                                                                                                    ",
"                                                                                                    ",
"                                                                                                    ",
"                                                                                                    ",
"                                                                                                    ",
"                                                                                                    ",
"                                                                                                    ",
"                                                                                                    ",
"                                                                                                    ",
"                                                                                                    ",
"                                                                                                    ",
"                                                                                                    ",
"                                                                                                    ",
"                                                                                                    ",
"                                                                                                    ",
"                    ...  ...  ....  ...  ...   ....  ...  ..    .....  ..     ..  .  . ... .....    ",
"                 .  .  . .  . .    .    .      .    .    .  .     .   .  .   .  . .  .  .    .      ",
"                  . ...  ...  ...   ..   ..    ...   ..  .        .   .  .   .  . .  .  .    .      ",
"                 .  .    . .  .       .    .   .       . .  .     .   .  .   . .  .  .  .    .      ",
"                    .    .  . .... ...  ...    .... ...   ..      .    ..     . .  ..  ...   .      ",
"                                                                                                    ",
"                                                                                                    ",
"                                                                                                    ",
"                                                                                                    ",
"                                                                                                    ",
"                                                                                                    "
};
