/* XPM */
static char *_2b9a219d13d4e4bf6efbd5fdf36f6ddjke9tPQvEciYapkI[] = {
/* columns rows colors chars-per-pixel */
"100 100 7 1 ",
"  c None",
". c gray13",
"X c #B71C1C",
"o c #388E3C",
"O c gray62",
"+ c #CCFF90",
"@ c #E4FF82",
/* pixels */
"                                                                                                    ",
"                                                                                                    ",
"                                                                                                    ",
"                                                                                                    ",
"                                                                                                    ",
"                                                                                                    ",
"                                                                                                    ",
"                                                                                                    ",
"                                                                                                    ",
"                                                                                                    ",
"                                                                                                    ",
"                                                                                                    ",
"                                                                                                    ",
"                                                                                                    ",
"                                                                                                    ",
"                                                                                                    ",
"                                                                                                    ",
"                                                                                                    ",
"                                                                                                    ",
"                                                                                                    ",
"                                                                                                    ",
"                                                                                                    ",
"                                                                                                    ",
"                                                                                                    ",
"                                                                                                    ",
"                                                                                                    ",
"                                                                                                    ",
"                                                                                                    ",
"                                                                                                    ",
"                                                                                                    ",
"                                                                                                    ",
"                                                                                                    ",
"                                                                                                    ",
"                                                                                                    ",
"                                                                                                    ",
"                                                                                                    ",
"                                                                                                    ",
"                                                                                                    ",
"                                                                                                    ",
"                                                                                                    ",
"                                                                                                    ",
"                                                                                                    ",
"                                                                                                    ",
"                                                                                                    ",
"                                                                                                    ",
"                                                                                                    ",
"                                                                                                    ",
"                                                                                                    ",
"                                                                                                    ",
"                                                                                                    ",
"                                                                                                    ",
"                                                                                                    ",
"                                                                                                    ",
"                                                                                                    ",
"                                                                                                    ",
"                                                                                                    ",
"                                                                                                    ",
"                                                                                                    ",
"                                                                                                    ",
"                                                                                                    ",
"                                                                                                    ",
"                                                                                                    ",
"                                                                                                    ",
"                                                                                                    ",
"                                                                                                    ",
"                                                                                                    ",
"                                                                                                    ",
"                                                                                                    ",
"                                                                                                    ",
"                          OOOOOOOOOOOOOOOOOOOOOOOOOOOOOOOOOOOOOOOOOO                                ",
"                          OOOOOOOOOOOOOOOOOOOOOOOOOOOOOOOOOOOOOOOOOO                                ",
"                          OO......................................OO                                ",
"                          OO......................................OO                                ",
"                          OO......................................OO                                ",
"                          OO.....oo+oooooooooooooooooooooo+oo.XX..OO                                ",
"                          OO.....o+oooooooooooooooooooooooo+o.XX..OO                                ",
"                          OO.....+oooooooooooooooooooooooooo+.....OO                                ",
"                          OO.....oooooooooooooooooooooooooooo.....OO                                ",
"                          OO.....oooooooooooooooooooooooooooo.....OO                                ",
"                          OO.....ooooooooooo+++ooooooooooo@@o.XX..OO                                ",
"                          OO.....ooooooooo++ooo+++oooooooo@@o.XX..OO                                ",
"                          OO.....ooooooo++oooooooo++ooooooooo.....OO                                ",
"                          OO.....ooooo++oooooooooooo+oooooooo.....OO                                ",
"                          OO.....oooo+ooooooooooooooo+ooooooo.....OO                                ",
"                          OO.....ooo+ooooooooooooooooo+oooooo.XX..OO                                ",
"                          OO.....oo+ooooooooooooooooooo+ooooo.XX..OO                                ",
"                          OO.....++oooooooooo++ooooooooo+ooo+.....OO                                ",
"                          OO.....o++ooooooo++oo++oooooooo+++o.....OO                                ",
"                          OO.....ooo+ooooo+oooooo++oooooo+ooo.....OO                                ",
"                          OO.....oooo+ooo+ooooooooo+ooo++oooo.XX..OO                                ",
"                          OO.....ooooo+++ooooooooooo+o+oooooo.XX..OO                                ",
"                          OO.....ooooooo+oooo++ooooo++ooooooo.....OO                                ",
"                          OO.....oooooooo+oo+oo+oo++ooooooooo.....OO                                ",
"                          OO.....ooooooooo++oooo++ooooooooooo.....OO                                ",
"                          OO.....ooooooooooo+oo++oooooooooooo.XX..OO                                ",
"                          OO.....oooooooooooo++oooooooooooooo.XX..OO                                ",
"                          OO......................................OO                                ",
"                          OO......................................OO                                ",
"                          OO......................................OO                                ",
"                          OOOOOOOOOOOOOOOOOOOOOOOOOOOOOOOOOOOOOOOOOO                                "
};
